<svg xmlns="http://www.w3.org/2000/svg" xmlns:xlink="http://www.w3.org/1999/xlink" width="500" zoomAndPan="magnify" viewBox="0 0 375 149.999998" height="200" preserveAspectRatio="xMidYMid meet" version="1.0"><defs><g/></defs><g fill="#000000" fill-opacity="1"><g transform="translate(0.000003125, 111.050171)"><g><path d="M 65.78125 -37.0625 C 65.59375 -36.800781 65.5 -36.476562 65.5 -36.09375 C 65.5 -35.707031 65.628906 -35.484375 65.890625 -35.421875 C 65.753906 -35.023438 65.523438 -34.3125 65.203125 -33.28125 C 64.878906 -32.25 64.523438 -31.148438 64.140625 -29.984375 C 63.941406 -27.648438 63.179688 -24.785156 61.859375 -21.390625 C 60.535156 -17.992188 59.289062 -15.296875 58.125 -13.296875 C 57.800781 -13.296875 57.539062 -13.242188 57.34375 -13.140625 C 57.144531 -13.046875 57.175781 -12.96875 57.4375 -12.90625 C 57.4375 -12.582031 57.082031 -11.96875 56.375 -11.0625 C 56.175781 -10.9375 55.769531 -10.46875 55.15625 -9.65625 C 54.539062 -8.84375 54.109375 -8.34375 53.859375 -8.15625 C 53.785156 -7.695312 53.585938 -7.320312 53.265625 -7.03125 C 52.941406 -6.738281 52.648438 -6.59375 52.390625 -6.59375 C 52.390625 -6.59375 52.34375 -6.578125 52.25 -6.546875 C 52.15625 -6.515625 52.109375 -6.398438 52.109375 -6.203125 C 50.941406 -4.523438 48.628906 -2.21875 45.171875 0.71875 C 41.710938 3.664062 38.785156 5.625 36.390625 6.59375 C 35.742188 7.050781 34.984375 7.472656 34.109375 7.859375 C 33.234375 8.242188 32.632812 8.503906 32.3125 8.640625 C 31.851562 9.023438 29.425781 9.410156 25.03125 9.796875 C 24.382812 9.859375 23.671875 9.921875 22.890625 9.984375 C 22.117188 10.054688 21.347656 10.15625 20.578125 10.28125 C 20.179688 10.34375 19.53125 10.375 18.625 10.375 C 16.5625 10.375 13.847656 9.957031 10.484375 9.125 C 9.640625 8.863281 9.019531 8.570312 8.625 8.25 C 8.238281 7.925781 7.800781 7.457031 7.3125 6.84375 C 6.832031 6.226562 6.460938 5.757812 6.203125 5.4375 C 5.367188 4.207031 4.953125 2.816406 4.953125 1.265625 C 4.953125 0.160156 5.191406 -0.757812 5.671875 -1.5 C 6.160156 -2.25 6.921875 -2.71875 7.953125 -2.90625 L 8.25 -2.90625 C 8.507812 -2.90625 9.023438 -2.773438 9.796875 -2.515625 C 9.796875 -4.398438 10.023438 -6.117188 10.484375 -7.671875 C 11.066406 -10.316406 12.875 -16.007812 15.90625 -24.75 L 17.078125 -28.046875 C 17.523438 -29.140625 18.171875 -31.207031 19.015625 -34.25 C 19.722656 -36.644531 20.515625 -39.101562 21.390625 -41.625 C 22.265625 -44.144531 22.894531 -45.726562 23.28125 -46.375 C 23.476562 -46.894531 23.675781 -47.609375 23.875 -48.515625 C 24.84375 -51.816406 25.8125 -54.660156 26.78125 -57.046875 L 27.453125 -60.25 L 26.390625 -60.734375 C 25.804688 -60.546875 25.289062 -60.453125 24.84375 -60.453125 C 24.519531 -60.453125 24.160156 -60.546875 23.765625 -60.734375 C 23.191406 -60.546875 22.398438 -60.867188 21.390625 -61.703125 C 20.390625 -62.546875 19.828125 -63.289062 19.703125 -63.9375 C 19.566406 -64.132812 19.484375 -64.425781 19.453125 -64.8125 C 19.421875 -65.207031 19.40625 -65.46875 19.40625 -65.59375 C 19.46875 -66.039062 20.242188 -66.539062 21.734375 -67.09375 C 23.222656 -67.644531 25.066406 -68.113281 27.265625 -68.5 C 29.460938 -68.894531 31.566406 -69.09375 33.578125 -69.09375 C 34.484375 -69.09375 35.160156 -69.054688 35.609375 -68.984375 C 37.222656 -68.859375 39.226562 -68.488281 41.625 -67.875 C 44.019531 -67.257812 46.1875 -66.597656 48.125 -65.890625 C 50.257812 -65.109375 52.539062 -63.742188 54.96875 -61.796875 C 57.394531 -59.859375 59.5625 -57.597656 61.46875 -55.015625 C 63.375 -52.429688 64.648438 -49.78125 65.296875 -47.0625 C 65.492188 -46.21875 65.6875 -45.050781 65.875 -43.5625 C 66.070312 -42.070312 66.171875 -40.75 66.171875 -39.59375 C 66.171875 -38.226562 66.039062 -37.382812 65.78125 -37.0625 Z M 55.984375 -31.34375 C 56.566406 -34.0625 56.859375 -36.582031 56.859375 -38.90625 C 56.859375 -45.570312 54.46875 -50.941406 49.6875 -55.015625 C 48.320312 -56.179688 46.101562 -57.441406 43.03125 -58.796875 C 39.957031 -60.160156 38.195312 -60.773438 37.75 -60.640625 C 37.425781 -60.578125 36.597656 -58.765625 35.265625 -55.203125 C 33.941406 -51.648438 32.535156 -47.707031 31.046875 -43.375 L 26.6875 -31.140625 C 26.425781 -30.109375 26.132812 -29.140625 25.8125 -28.234375 C 25.488281 -27.328125 25.226562 -26.519531 25.03125 -25.8125 C 24.1875 -23.414062 23.765625 -22.054688 23.765625 -21.734375 C 21.890625 -18.828125 20.5 -13.910156 19.59375 -6.984375 C 19.46875 -6.597656 19.113281 -5.109375 18.53125 -2.515625 C 18.082031 -0.390625 17.757812 0.640625 17.5625 0.578125 L 17.46875 1.453125 C 18.632812 1.972656 19.765625 2.164062 20.859375 2.03125 C 21.242188 1.96875 21.773438 1.90625 22.453125 1.84375 C 23.140625 1.78125 23.644531 1.75 23.96875 1.75 C 25.90625 1.613281 27.34375 1.460938 28.28125 1.296875 C 29.21875 1.140625 30.007812 0.804688 30.65625 0.296875 C 33.507812 -1.648438 35.820312 -3.316406 37.59375 -4.703125 C 39.375 -6.097656 40.457031 -6.988281 40.84375 -7.375 C 40.976562 -7.695312 41.660156 -8.082031 42.890625 -8.53125 L 45.609375 -11.359375 C 47.222656 -13.097656 48.253906 -14.128906 48.703125 -14.453125 C 48.773438 -14.910156 48.890625 -15.378906 49.046875 -15.859375 C 49.210938 -16.347656 49.296875 -16.722656 49.296875 -16.984375 C 50.066406 -17.816406 51.226562 -19.832031 52.78125 -23.03125 C 54.332031 -26.238281 55.398438 -29.007812 55.984375 -31.34375 Z M 55.984375 -31.34375 "/></g></g></g><g fill="#000000" fill-opacity="1"><g transform="translate(56.957336, 111.050171)"><g><path d="M 21.921875 5.140625 L 22.03125 4.859375 C 22.03125 4.203125 21.476562 3.84375 20.375 3.78125 C 19.019531 2.9375 17.566406 1.5 16.015625 -0.53125 C 14.460938 -2.570312 13.488281 -4.140625 13.09375 -5.234375 C 12.90625 -5.753906 12.8125 -6.113281 12.8125 -6.3125 C 12.8125 -6.632812 12.9375 -6.875 13.1875 -7.03125 C 13.445312 -7.195312 13.769531 -7.359375 14.15625 -7.515625 C 14.550781 -7.679688 14.847656 -7.796875 15.046875 -7.859375 C 16.203125 -8.640625 17.070312 -9.03125 17.65625 -9.03125 C 18.300781 -9.03125 18.851562 -8.609375 19.3125 -7.765625 C 20.21875 -6.148438 21.671875 -4.804688 23.671875 -3.734375 C 25.679688 -2.671875 27.914062 -2.140625 30.375 -2.140625 C 32.570312 -2.140625 34.546875 -2.523438 36.296875 -3.296875 C 37.972656 -4.078125 38.8125 -5.207031 38.8125 -6.6875 C 38.8125 -7.789062 38.328125 -9.117188 37.359375 -10.671875 C 37.222656 -11.054688 36.992188 -11.410156 36.671875 -11.734375 C 36.347656 -12.054688 35.960938 -12.382812 35.515625 -12.71875 C 34.484375 -13.488281 33.351562 -14.488281 32.125 -15.71875 C 31.082031 -16.101562 30.015625 -16.617188 28.921875 -17.265625 L 26.875 -18.234375 C 25.257812 -19.015625 23.445312 -20.257812 21.4375 -21.96875 C 19.4375 -23.6875 18.046875 -25.289062 17.265625 -26.78125 C 15.847656 -28.132812 15.140625 -30.203125 15.140625 -32.984375 C 15.140625 -36.023438 15.847656 -38.875 17.265625 -41.53125 C 18.046875 -43.28125 19.921875 -45.960938 22.890625 -49.578125 C 25.867188 -53.203125 28.070312 -55.46875 29.5 -56.375 L 32.015625 -58.796875 C 32.085938 -59.054688 32.1875 -59.203125 32.3125 -59.234375 C 32.4375 -59.265625 32.535156 -59.28125 32.609375 -59.28125 C 32.796875 -59.414062 33.472656 -59.722656 34.640625 -60.203125 C 35.804688 -60.691406 37.035156 -61.550781 38.328125 -62.78125 C 42.273438 -64.71875 45.785156 -66.085938 48.859375 -66.890625 C 51.929688 -67.703125 54.5 -68.109375 56.5625 -68.109375 C 59.09375 -67.984375 61.441406 -67.078125 63.609375 -65.390625 C 65.773438 -63.710938 67.019531 -61.773438 67.34375 -59.578125 C 67.46875 -58.929688 67.53125 -58.414062 67.53125 -58.03125 C 67.53125 -55.632812 66.5625 -52.945312 64.625 -49.96875 C 62.6875 -46.988281 60.613281 -44.890625 58.40625 -43.671875 C 57.4375 -43.210938 56.5 -42.984375 55.59375 -42.984375 C 54.5 -42.984375 53.609375 -43.273438 52.921875 -43.859375 C 52.242188 -44.441406 51.941406 -45.1875 52.015625 -46.09375 C 52.015625 -46.675781 52.222656 -47.335938 52.640625 -48.078125 C 53.054688 -48.816406 54.007812 -50.03125 55.5 -51.71875 C 57.695312 -54.945312 58.796875 -57.273438 58.796875 -58.703125 C 58.796875 -59.671875 58.210938 -60.253906 57.046875 -60.453125 C 56.335938 -60.640625 54.414062 -60.363281 51.28125 -59.625 C 48.144531 -58.882812 46.578125 -58.351562 46.578125 -58.03125 C 46.578125 -57.957031 46.5625 -57.835938 46.53125 -57.671875 C 46.5 -57.515625 46.382812 -57.472656 46.1875 -57.546875 C 45.925781 -57.609375 44.097656 -56.535156 40.703125 -54.328125 C 37.304688 -52.128906 35.546875 -50.867188 35.421875 -50.546875 C 35.347656 -50.222656 35.101562 -49.882812 34.6875 -49.53125 C 34.269531 -49.175781 33.769531 -48.867188 33.1875 -48.609375 C 32.019531 -47.898438 30.96875 -46.929688 30.03125 -45.703125 C 29.09375 -44.472656 27.878906 -42.53125 26.390625 -39.875 C 25.617188 -38.78125 24.988281 -37.582031 24.5 -36.28125 C 24.007812 -34.988281 23.765625 -33.828125 23.765625 -32.796875 C 23.765625 -32.085938 23.863281 -31.472656 24.0625 -30.953125 C 24.320312 -29.984375 25.015625 -29.09375 26.140625 -28.28125 C 27.273438 -27.476562 29.460938 -26.101562 32.703125 -24.15625 C 35.992188 -22.28125 38.96875 -20.289062 41.625 -18.1875 C 44.28125 -16.09375 45.898438 -14.429688 46.484375 -13.203125 C 47.515625 -11.710938 48.03125 -9.769531 48.03125 -7.375 C 48.03125 -5.5 47.769531 -3.71875 47.25 -2.03125 C 46.664062 -0.800781 45.921875 0.34375 45.015625 1.40625 C 44.117188 2.476562 43.3125 2.976562 42.59375 2.90625 C 41.945312 3.101562 41.394531 3.347656 40.9375 3.640625 C 40.488281 3.929688 40.101562 4.140625 39.78125 4.265625 C 39.007812 4.722656 37.019531 5.191406 33.8125 5.671875 C 30.613281 6.160156 27.945312 6.375 25.8125 6.3125 Z M 21.921875 5.140625 "/></g></g></g><g fill="#000000" fill-opacity="1"><g transform="translate(104.987798, 111.050171)"><g><path d="M 18.828125 5.921875 C 14.296875 4.816406 10.929688 1.03125 8.734375 -5.4375 C 8.671875 -5.820312 8.640625 -6.597656 8.640625 -7.765625 C 8.640625 -9.378906 8.703125 -10.976562 8.828125 -12.5625 C 8.960938 -14.144531 9.125 -15.066406 9.3125 -15.328125 C 9.507812 -15.460938 9.609375 -15.851562 9.609375 -16.5 C 9.546875 -16.882812 9.769531 -17.953125 10.28125 -19.703125 C 10.738281 -20.859375 10.867188 -21.859375 10.671875 -22.703125 C 10.734375 -22.835938 10.84375 -23.066406 11 -23.390625 C 11.164062 -23.710938 11.378906 -24.035156 11.640625 -24.359375 C 11.960938 -24.679688 12.140625 -25.019531 12.171875 -25.375 C 12.203125 -25.726562 12.1875 -25.96875 12.125 -26.09375 L 12.125 -26.203125 C 12.125 -26.460938 12.203125 -26.800781 12.359375 -27.21875 C 12.523438 -27.632812 12.707031 -27.972656 12.90625 -28.234375 C 13.101562 -28.429688 13.28125 -28.691406 13.4375 -29.015625 C 13.601562 -29.335938 13.71875 -29.5625 13.78125 -29.6875 C 13.84375 -30.144531 14.34375 -31.582031 15.28125 -34 C 16.21875 -36.425781 16.847656 -37.898438 17.171875 -38.421875 L 17.171875 -38.625 C 17.429688 -39.269531 17.785156 -39.945312 18.234375 -40.65625 C 18.367188 -41.5625 18.820312 -42.820312 19.59375 -44.4375 C 21.082031 -47.738281 23.171875 -51.539062 25.859375 -55.84375 C 28.546875 -60.144531 30.664062 -63.039062 32.21875 -64.53125 C 33.894531 -66.46875 35.414062 -67.4375 36.78125 -67.4375 C 37.488281 -67.4375 38.132812 -67.144531 38.71875 -66.5625 C 39.164062 -66.113281 39.535156 -65.46875 39.828125 -64.625 C 40.117188 -63.78125 40.265625 -63.035156 40.265625 -62.390625 C 40.265625 -61.484375 40.003906 -61 39.484375 -60.9375 C 38.835938 -60.476562 37.851562 -59.148438 36.53125 -56.953125 C 35.207031 -54.753906 33.445312 -51.648438 31.25 -47.640625 L 29.78125 -44.921875 C 28.945312 -43.109375 28.222656 -41.585938 27.609375 -40.359375 C 26.992188 -39.128906 26.585938 -38.320312 26.390625 -37.9375 L 26 -37.0625 C 24.445312 -33.769531 22.992188 -30.210938 21.640625 -26.390625 C 21.316406 -26.003906 21.101562 -25.597656 21 -25.171875 C 20.90625 -24.753906 20.859375 -24.484375 20.859375 -24.359375 C 20.734375 -24.421875 20.617188 -24.238281 20.515625 -23.8125 C 20.421875 -23.394531 20.3125 -23.023438 20.1875 -22.703125 C 19.726562 -22.316406 19.5 -21.378906 19.5 -19.890625 C 18.914062 -18.335938 18.394531 -16.394531 17.9375 -14.0625 C 17.488281 -11.738281 17.265625 -9.832031 17.265625 -8.34375 C 17.265625 -6.914062 17.507812 -5.75 18 -4.84375 C 18.488281 -3.945312 19.25 -3.269531 20.28125 -2.8125 C 21.832031 -2.039062 22.992188 -1.65625 23.765625 -1.65625 C 24.222656 -1.582031 24.921875 -1.609375 25.859375 -1.734375 C 26.796875 -1.867188 27.878906 -2.035156 29.109375 -2.234375 L 29.015625 -2.234375 C 29.335938 -2.296875 31.113281 -2.679688 34.34375 -3.390625 C 35.894531 -3.585938 37.191406 -3.878906 38.234375 -4.265625 C 38.742188 -4.398438 39.46875 -4.613281 40.40625 -4.90625 C 41.351562 -5.195312 42.050781 -5.359375 42.5 -5.390625 C 42.945312 -5.421875 43.269531 -5.367188 43.46875 -5.234375 C 43.851562 -4.847656 44.222656 -4.316406 44.578125 -3.640625 C 44.941406 -2.960938 45.023438 -2.363281 44.828125 -1.84375 C 44.703125 -1.519531 44.023438 -0.828125 42.796875 0.234375 C 41.566406 1.304688 40.207031 2.328125 38.71875 3.296875 C 37.226562 4.265625 35.929688 4.910156 34.828125 5.234375 C 32.628906 6.203125 29.460938 6.6875 25.328125 6.6875 C 22.410156 6.6875 20.242188 6.429688 18.828125 5.921875 Z M 18.828125 5.921875 "/></g></g></g><g fill="#000000" fill-opacity="1"><g transform="translate(146.323099, 111.050171)"><g><path d="M 65.78125 -37.0625 C 65.59375 -36.800781 65.5 -36.476562 65.5 -36.09375 C 65.5 -35.707031 65.628906 -35.484375 65.890625 -35.421875 C 65.753906 -35.023438 65.523438 -34.3125 65.203125 -33.28125 C 64.878906 -32.25 64.523438 -31.148438 64.140625 -29.984375 C 63.941406 -27.648438 63.179688 -24.785156 61.859375 -21.390625 C 60.535156 -17.992188 59.289062 -15.296875 58.125 -13.296875 C 57.800781 -13.296875 57.539062 -13.242188 57.34375 -13.140625 C 57.144531 -13.046875 57.175781 -12.96875 57.4375 -12.90625 C 57.4375 -12.582031 57.082031 -11.96875 56.375 -11.0625 C 56.175781 -10.9375 55.769531 -10.46875 55.15625 -9.65625 C 54.539062 -8.84375 54.109375 -8.34375 53.859375 -8.15625 C 53.785156 -7.695312 53.585938 -7.320312 53.265625 -7.03125 C 52.941406 -6.738281 52.648438 -6.59375 52.390625 -6.59375 C 52.390625 -6.59375 52.34375 -6.578125 52.25 -6.546875 C 52.15625 -6.515625 52.109375 -6.398438 52.109375 -6.203125 C 50.941406 -4.523438 48.628906 -2.21875 45.171875 0.71875 C 41.710938 3.664062 38.785156 5.625 36.390625 6.59375 C 35.742188 7.050781 34.984375 7.472656 34.109375 7.859375 C 33.234375 8.242188 32.632812 8.503906 32.3125 8.640625 C 31.851562 9.023438 29.425781 9.410156 25.03125 9.796875 C 24.382812 9.859375 23.671875 9.921875 22.890625 9.984375 C 22.117188 10.054688 21.347656 10.15625 20.578125 10.28125 C 20.179688 10.34375 19.53125 10.375 18.625 10.375 C 16.5625 10.375 13.847656 9.957031 10.484375 9.125 C 9.640625 8.863281 9.019531 8.570312 8.625 8.25 C 8.238281 7.925781 7.800781 7.457031 7.3125 6.84375 C 6.832031 6.226562 6.460938 5.757812 6.203125 5.4375 C 5.367188 4.207031 4.953125 2.816406 4.953125 1.265625 C 4.953125 0.160156 5.191406 -0.757812 5.671875 -1.5 C 6.160156 -2.25 6.921875 -2.71875 7.953125 -2.90625 L 8.25 -2.90625 C 8.507812 -2.90625 9.023438 -2.773438 9.796875 -2.515625 C 9.796875 -4.398438 10.023438 -6.117188 10.484375 -7.671875 C 11.066406 -10.316406 12.875 -16.007812 15.90625 -24.75 L 17.078125 -28.046875 C 17.523438 -29.140625 18.171875 -31.207031 19.015625 -34.25 C 19.722656 -36.644531 20.515625 -39.101562 21.390625 -41.625 C 22.265625 -44.144531 22.894531 -45.726562 23.28125 -46.375 C 23.476562 -46.894531 23.675781 -47.609375 23.875 -48.515625 C 24.84375 -51.816406 25.8125 -54.660156 26.78125 -57.046875 L 27.453125 -60.25 L 26.390625 -60.734375 C 25.804688 -60.546875 25.289062 -60.453125 24.84375 -60.453125 C 24.519531 -60.453125 24.160156 -60.546875 23.765625 -60.734375 C 23.191406 -60.546875 22.398438 -60.867188 21.390625 -61.703125 C 20.390625 -62.546875 19.828125 -63.289062 19.703125 -63.9375 C 19.566406 -64.132812 19.484375 -64.425781 19.453125 -64.8125 C 19.421875 -65.207031 19.40625 -65.46875 19.40625 -65.59375 C 19.46875 -66.039062 20.242188 -66.539062 21.734375 -67.09375 C 23.222656 -67.644531 25.066406 -68.113281 27.265625 -68.5 C 29.460938 -68.894531 31.566406 -69.09375 33.578125 -69.09375 C 34.484375 -69.09375 35.160156 -69.054688 35.609375 -68.984375 C 37.222656 -68.859375 39.226562 -68.488281 41.625 -67.875 C 44.019531 -67.257812 46.1875 -66.597656 48.125 -65.890625 C 50.257812 -65.109375 52.539062 -63.742188 54.96875 -61.796875 C 57.394531 -59.859375 59.5625 -57.597656 61.46875 -55.015625 C 63.375 -52.429688 64.648438 -49.78125 65.296875 -47.0625 C 65.492188 -46.21875 65.6875 -45.050781 65.875 -43.5625 C 66.070312 -42.070312 66.171875 -40.75 66.171875 -39.59375 C 66.171875 -38.226562 66.039062 -37.382812 65.78125 -37.0625 Z M 55.984375 -31.34375 C 56.566406 -34.0625 56.859375 -36.582031 56.859375 -38.90625 C 56.859375 -45.570312 54.46875 -50.941406 49.6875 -55.015625 C 48.320312 -56.179688 46.101562 -57.441406 43.03125 -58.796875 C 39.957031 -60.160156 38.195312 -60.773438 37.75 -60.640625 C 37.425781 -60.578125 36.597656 -58.765625 35.265625 -55.203125 C 33.941406 -51.648438 32.535156 -47.707031 31.046875 -43.375 L 26.6875 -31.140625 C 26.425781 -30.109375 26.132812 -29.140625 25.8125 -28.234375 C 25.488281 -27.328125 25.226562 -26.519531 25.03125 -25.8125 C 24.1875 -23.414062 23.765625 -22.054688 23.765625 -21.734375 C 21.890625 -18.828125 20.5 -13.910156 19.59375 -6.984375 C 19.46875 -6.597656 19.113281 -5.109375 18.53125 -2.515625 C 18.082031 -0.390625 17.757812 0.640625 17.5625 0.578125 L 17.46875 1.453125 C 18.632812 1.972656 19.765625 2.164062 20.859375 2.03125 C 21.242188 1.96875 21.773438 1.90625 22.453125 1.84375 C 23.140625 1.78125 23.644531 1.75 23.96875 1.75 C 25.90625 1.613281 27.34375 1.460938 28.28125 1.296875 C 29.21875 1.140625 30.007812 0.804688 30.65625 0.296875 C 33.507812 -1.648438 35.820312 -3.316406 37.59375 -4.703125 C 39.375 -6.097656 40.457031 -6.988281 40.84375 -7.375 C 40.976562 -7.695312 41.660156 -8.082031 42.890625 -8.53125 L 45.609375 -11.359375 C 47.222656 -13.097656 48.253906 -14.128906 48.703125 -14.453125 C 48.773438 -14.910156 48.890625 -15.378906 49.046875 -15.859375 C 49.210938 -16.347656 49.296875 -16.722656 49.296875 -16.984375 C 50.066406 -17.816406 51.226562 -19.832031 52.78125 -23.03125 C 54.332031 -26.238281 55.398438 -29.007812 55.984375 -31.34375 Z M 55.984375 -31.34375 "/></g></g></g><g fill="#000000" fill-opacity="1"><g transform="translate(203.280432, 111.050171)"><g><path d="M 16.296875 -0.671875 C 15.523438 -0.671875 14.910156 -0.800781 14.453125 -1.0625 C 14.003906 -1.320312 13.359375 -1.804688 12.515625 -2.515625 C 11.222656 -3.878906 10.21875 -5.285156 9.5 -6.734375 C 8.789062 -8.191406 8.535156 -9.472656 8.734375 -10.578125 C 8.929688 -11.023438 9.007812 -11.472656 8.96875 -11.921875 C 8.9375 -12.378906 8.921875 -12.675781 8.921875 -12.8125 C 8.660156 -13.070312 8.53125 -13.25 8.53125 -13.34375 C 8.53125 -13.4375 8.59375 -13.53125 8.71875 -13.625 C 8.851562 -13.726562 8.957031 -13.84375 9.03125 -13.96875 C 9.414062 -13.96875 9.539062 -14.328125 9.40625 -15.046875 C 9.28125 -15.554688 9.507812 -16.6875 10.09375 -18.4375 C 10.675781 -20.1875 11.421875 -21.800781 12.328125 -23.28125 C 13.035156 -24.445312 14.082031 -25.90625 15.46875 -27.65625 C 16.863281 -29.40625 18.113281 -30.726562 19.21875 -31.625 C 22.445312 -34.40625 25.351562 -36.085938 27.9375 -36.671875 C 29.238281 -36.992188 30.503906 -37.15625 31.734375 -37.15625 C 33.609375 -37.15625 35.0625 -36.640625 36.09375 -35.609375 C 37.519531 -35.023438 38.554688 -34.179688 39.203125 -33.078125 C 39.847656 -31.984375 40.269531 -30.53125 40.46875 -28.71875 C 40.53125 -28.332031 40.5625 -27.6875 40.5625 -26.78125 C 40.5625 -21.988281 38.75 -17.007812 35.125 -11.84375 C 33.632812 -9.707031 32.144531 -7.988281 30.65625 -6.6875 C 29.175781 -5.394531 27.367188 -4.101562 25.234375 -2.8125 C 24.066406 -2.039062 22.832031 -1.523438 21.53125 -1.265625 C 20.238281 -1.003906 18.492188 -0.804688 16.296875 -0.671875 Z M 26.203125 -12.515625 C 27.429688 -13.617188 28.316406 -14.734375 28.859375 -15.859375 C 29.410156 -16.992188 30.207031 -18.984375 31.25 -21.828125 C 31.632812 -22.410156 31.828125 -23.578125 31.828125 -25.328125 C 31.828125 -26.878906 31.597656 -27.75 31.140625 -27.9375 C 30.816406 -28.195312 30.429688 -28.328125 29.984375 -28.328125 C 29.398438 -28.328125 28.460938 -27.875 27.171875 -26.96875 C 24.898438 -25.03125 23.003906 -23.007812 21.484375 -20.90625 C 19.972656 -18.800781 18.925781 -16.394531 18.34375 -13.6875 C 18.269531 -13.425781 18.234375 -13.035156 18.234375 -12.515625 C 18.234375 -10.316406 19.015625 -9.21875 20.578125 -9.21875 C 22.054688 -9.21875 23.929688 -10.316406 26.203125 -12.515625 Z M 26.203125 -12.515625 "/></g></g></g><g fill="#000000" fill-opacity="1"><g transform="translate(238.405735, 111.050171)"><g><path d="M 16.296875 -0.671875 C 15.523438 -0.671875 14.910156 -0.800781 14.453125 -1.0625 C 14.003906 -1.320312 13.359375 -1.804688 12.515625 -2.515625 C 11.222656 -3.878906 10.21875 -5.285156 9.5 -6.734375 C 8.789062 -8.191406 8.535156 -9.472656 8.734375 -10.578125 C 8.929688 -11.023438 9.007812 -11.472656 8.96875 -11.921875 C 8.9375 -12.378906 8.921875 -12.675781 8.921875 -12.8125 C 8.660156 -13.070312 8.53125 -13.25 8.53125 -13.34375 C 8.53125 -13.4375 8.59375 -13.53125 8.71875 -13.625 C 8.851562 -13.726562 8.957031 -13.84375 9.03125 -13.96875 C 9.414062 -13.96875 9.539062 -14.328125 9.40625 -15.046875 C 9.28125 -15.554688 9.507812 -16.6875 10.09375 -18.4375 C 10.675781 -20.1875 11.421875 -21.800781 12.328125 -23.28125 C 13.035156 -24.445312 14.082031 -25.90625 15.46875 -27.65625 C 16.863281 -29.40625 18.113281 -30.726562 19.21875 -31.625 C 22.445312 -34.40625 25.351562 -36.085938 27.9375 -36.671875 C 29.238281 -36.992188 30.503906 -37.15625 31.734375 -37.15625 C 33.609375 -37.15625 35.0625 -36.640625 36.09375 -35.609375 C 37.519531 -35.023438 38.554688 -34.179688 39.203125 -33.078125 C 39.847656 -31.984375 40.269531 -30.53125 40.46875 -28.71875 C 40.53125 -28.332031 40.5625 -27.6875 40.5625 -26.78125 C 40.5625 -21.988281 38.75 -17.007812 35.125 -11.84375 C 33.632812 -9.707031 32.144531 -7.988281 30.65625 -6.6875 C 29.175781 -5.394531 27.367188 -4.101562 25.234375 -2.8125 C 24.066406 -2.039062 22.832031 -1.523438 21.53125 -1.265625 C 20.238281 -1.003906 18.492188 -0.804688 16.296875 -0.671875 Z M 26.203125 -12.515625 C 27.429688 -13.617188 28.316406 -14.734375 28.859375 -15.859375 C 29.410156 -16.992188 30.207031 -18.984375 31.25 -21.828125 C 31.632812 -22.410156 31.828125 -23.578125 31.828125 -25.328125 C 31.828125 -26.878906 31.597656 -27.75 31.140625 -27.9375 C 30.816406 -28.195312 30.429688 -28.328125 29.984375 -28.328125 C 29.398438 -28.328125 28.460938 -27.875 27.171875 -26.96875 C 24.898438 -25.03125 23.003906 -23.007812 21.484375 -20.90625 C 19.972656 -18.800781 18.925781 -16.394531 18.34375 -13.6875 C 18.269531 -13.425781 18.234375 -13.035156 18.234375 -12.515625 C 18.234375 -10.316406 19.015625 -9.21875 20.578125 -9.21875 C 22.054688 -9.21875 23.929688 -10.316406 26.203125 -12.515625 Z M 26.203125 -12.515625 "/></g></g></g><g fill="#000000" fill-opacity="1"><g transform="translate(273.531038, 111.050171)"><g><path d="M 36.296875 1.84375 C 35.453125 2.039062 34.640625 1.847656 33.859375 1.265625 C 33.085938 0.679688 32.507812 0 32.125 -0.78125 C 31.789062 -1.6875 31.5625 -2.570312 31.4375 -3.4375 C 31.3125 -4.3125 31.210938 -5.492188 31.140625 -6.984375 L 31.046875 -10.28125 L 27.078125 -6.6875 C 22.992188 -2.875 19.207031 -0.96875 15.71875 -0.96875 C 14.6875 -1.164062 13.375 -2.039062 11.78125 -3.59375 C 10.195312 -5.144531 9.179688 -6.46875 8.734375 -7.5625 C 8.472656 -8.082031 8.34375 -8.894531 8.34375 -10 C 8.34375 -12.457031 8.988281 -15.414062 10.28125 -18.875 C 11.570312 -22.332031 13.191406 -25.128906 15.140625 -27.265625 C 16.554688 -29.398438 18.265625 -31.015625 20.265625 -32.109375 C 22.273438 -33.210938 24.316406 -33.765625 26.390625 -33.765625 C 28.328125 -33.765625 30.039062 -33.34375 31.53125 -32.5 C 32.4375 -32.050781 33.179688 -31.828125 33.765625 -31.828125 C 34.410156 -31.828125 34.832031 -32.25 35.03125 -33.09375 C 35.09375 -33.414062 35.476562 -34.707031 36.1875 -36.96875 L 37.265625 -40.078125 C 38.679688 -44.347656 39.90625 -47.773438 40.9375 -50.359375 C 41.976562 -52.941406 43.242188 -55.785156 44.734375 -58.890625 C 45.378906 -60.253906 46.054688 -61.257812 46.765625 -61.90625 C 47.484375 -62.550781 48.128906 -62.84375 48.703125 -62.78125 C 49.546875 -62.78125 50.46875 -62.503906 51.46875 -61.953125 C 52.476562 -61.398438 53.144531 -60.707031 53.46875 -59.875 C 53.65625 -59.414062 53.75 -58.863281 53.75 -58.21875 C 53.75 -57.507812 53.554688 -56.765625 53.171875 -55.984375 C 51.492188 -53.078125 49.425781 -48.320312 46.96875 -41.71875 C 44.507812 -35.125 42.597656 -29.398438 41.234375 -24.546875 C 40.722656 -22.796875 40.351562 -20.367188 40.125 -17.265625 C 39.894531 -14.160156 39.78125 -11.125 39.78125 -8.15625 C 39.78125 -5.300781 39.878906 -3.519531 40.078125 -2.8125 C 40.203125 -2.425781 40.265625 -1.910156 40.265625 -1.265625 C 40.265625 -0.160156 39.890625 0.597656 39.140625 1.015625 C 38.398438 1.441406 37.453125 1.71875 36.296875 1.84375 Z M 20.28125 -9.890625 C 21.769531 -10.472656 23.421875 -11.445312 25.234375 -12.8125 C 27.171875 -14.226562 28.578125 -15.484375 29.453125 -16.578125 C 30.328125 -17.679688 31.019531 -19.078125 31.53125 -20.765625 C 31.664062 -21.085938 31.734375 -21.539062 31.734375 -22.125 C 31.734375 -23.289062 31.179688 -24.359375 30.078125 -25.328125 C 29.429688 -25.835938 28.6875 -26.09375 27.84375 -26.09375 C 26.488281 -26.09375 25.066406 -25.382812 23.578125 -23.96875 C 21.898438 -22.414062 20.539062 -20.679688 19.5 -18.765625 C 18.46875 -16.859375 17.597656 -14.257812 16.890625 -10.96875 C 16.753906 -10.507812 16.816406 -10.132812 17.078125 -9.84375 C 17.335938 -9.550781 17.757812 -9.40625 18.34375 -9.40625 C 18.789062 -9.40625 19.4375 -9.566406 20.28125 -9.890625 Z M 20.28125 -9.890625 "/></g></g></g><g fill="#000000" fill-opacity="1"><g transform="translate(312.537582, 111.050171)"><g><path d="M 13.78125 1.0625 C 13.582031 1.132812 13.320312 1.171875 13 1.171875 C 11.644531 1.171875 10.515625 0.394531 9.609375 -1.15625 C 8.703125 -2.71875 8.25 -4.691406 8.25 -7.078125 C 8.25 -8.378906 8.378906 -9.644531 8.640625 -10.875 C 9.347656 -12.75 9.703125 -14.101562 9.703125 -14.9375 C 9.898438 -16.164062 10.5625 -18.378906 11.6875 -21.578125 C 12.820312 -24.785156 13.550781 -26.710938 13.875 -27.359375 C 14.132812 -27.359375 14.359375 -27.566406 14.546875 -27.984375 C 14.742188 -28.410156 14.84375 -28.882812 14.84375 -29.40625 C 14.84375 -29.988281 14.957031 -30.585938 15.1875 -31.203125 C 15.414062 -31.816406 15.65625 -32.25 15.90625 -32.5 C 15.90625 -32.695312 15.984375 -33.050781 16.140625 -33.5625 C 16.304688 -34.082031 16.390625 -34.441406 16.390625 -34.640625 C 16.390625 -34.765625 16.472656 -35.003906 16.640625 -35.359375 C 16.804688 -35.722656 16.890625 -36 16.890625 -36.1875 C 17.921875 -38.195312 19.726562 -42.707031 22.3125 -49.71875 C 24.90625 -56.738281 26.203125 -60.640625 26.203125 -61.421875 C 26.203125 -61.941406 26.394531 -62.425781 26.78125 -62.875 C 27.164062 -63.332031 27.617188 -63.5625 28.140625 -63.5625 C 28.335938 -63.75 28.757812 -63.890625 29.40625 -63.984375 C 30.050781 -64.085938 30.566406 -64.140625 30.953125 -64.140625 L 32.5 -62.578125 C 33.21875 -61.929688 33.769531 -61.347656 34.15625 -60.828125 C 34.539062 -60.316406 34.734375 -59.707031 34.734375 -59 C 34.734375 -57.832031 34.519531 -56.679688 34.09375 -55.546875 C 33.675781 -54.421875 32.46875 -51.753906 30.46875 -47.546875 C 30.34375 -47.222656 29.828125 -46.054688 28.921875 -44.046875 C 28.265625 -42.753906 27.9375 -42.015625 27.9375 -41.828125 C 27.9375 -41.628906 27.804688 -41.222656 27.546875 -40.609375 C 27.296875 -39.992188 27.070312 -39.363281 26.875 -38.71875 C 26.351562 -37.675781 25.523438 -35.84375 24.390625 -33.21875 C 23.265625 -30.601562 22.703125 -29.171875 22.703125 -28.921875 C 22.703125 -28.203125 22.539062 -27.679688 22.21875 -27.359375 C 22.019531 -27.359375 21.890625 -27.210938 21.828125 -26.921875 C 21.765625 -26.628906 21.734375 -26.421875 21.734375 -26.296875 C 21.734375 -25.648438 21.21875 -23.9375 20.1875 -21.15625 L 19.3125 -18.34375 C 18.082031 -14.132812 17.222656 -11.054688 16.734375 -9.109375 C 16.253906 -7.171875 16.015625 -5.523438 16.015625 -4.171875 C 16.015625 -2.742188 15.785156 -1.578125 15.328125 -0.671875 C 14.878906 0.222656 14.363281 0.800781 13.78125 1.0625 Z M 13.78125 1.0625 "/></g></g></g><g fill="#000000" fill-opacity="1"><g transform="translate(329.809142, 111.050171)"><g><path d="M 21.640625 0 C 17.953125 0 14.972656 -1.03125 12.703125 -3.09375 C 10.441406 -5.164062 9.3125 -8.113281 9.3125 -11.9375 C 9.3125 -13.425781 9.410156 -15.078125 9.609375 -16.890625 C 9.734375 -18.441406 10.363281 -20.570312 11.5 -23.28125 C 12.632812 -26 14.1875 -28.648438 16.15625 -31.234375 C 18.125 -33.828125 20.4375 -35.738281 23.09375 -36.96875 C 24.320312 -37.550781 25.351562 -37.953125 26.1875 -38.171875 C 27.03125 -38.398438 28.003906 -38.515625 29.109375 -38.515625 C 31.765625 -38.515625 33.914062 -38.03125 35.5625 -37.0625 C 37.207031 -36.09375 38.367188 -34.992188 39.046875 -33.765625 C 39.734375 -32.535156 40.078125 -31.46875 40.078125 -30.5625 L 40.078125 -29.78125 C 40.078125 -29.007812 39.625 -27.585938 38.71875 -25.515625 C 37.8125 -23.453125 36.367188 -21.515625 34.390625 -19.703125 C 32.421875 -17.890625 29.882812 -16.882812 26.78125 -16.6875 C 25.226562 -16.6875 23.722656 -16.832031 22.265625 -17.125 C 20.804688 -17.414062 19.882812 -17.5625 19.5 -17.5625 C 18.53125 -17.5625 17.914062 -17.203125 17.65625 -16.484375 C 17.394531 -15.773438 17.265625 -14.582031 17.265625 -12.90625 C 17.460938 -11.09375 17.960938 -9.828125 18.765625 -9.109375 C 19.578125 -8.398438 20.757812 -8.046875 22.3125 -8.046875 C 23.09375 -8.046875 24 -8.273438 25.03125 -8.734375 C 26.070312 -9.253906 27.300781 -10.0625 28.71875 -11.15625 C 29.5 -11.800781 30.113281 -12.253906 30.5625 -12.515625 C 31.019531 -12.773438 31.570312 -12.90625 32.21875 -12.90625 C 32.800781 -12.90625 33.476562 -12.515625 34.25 -11.734375 C 35.03125 -10.960938 35.453125 -10.222656 35.515625 -9.515625 C 35.378906 -8.734375 34.664062 -7.566406 33.375 -6.015625 C 32.082031 -4.460938 30.398438 -3.070312 28.328125 -1.84375 C 26.265625 -0.613281 24.035156 0 21.640625 0 Z M 25.03125 -23.390625 C 26.257812 -23.390625 27.101562 -23.515625 27.5625 -23.765625 C 28.207031 -24.097656 29.191406 -24.925781 30.515625 -26.25 C 31.835938 -27.570312 32.535156 -28.492188 32.609375 -29.015625 C 32.609375 -29.660156 32.332031 -30.191406 31.78125 -30.609375 C 31.226562 -31.035156 30.46875 -31.3125 29.5 -31.4375 L 28.4375 -31.4375 C 27.59375 -31.4375 26.378906 -30.738281 24.796875 -29.34375 C 23.210938 -27.957031 21.835938 -26.359375 20.671875 -24.546875 C 20.734375 -24.222656 21.21875 -23.945312 22.125 -23.71875 C 23.03125 -23.5 24 -23.390625 25.03125 -23.390625 Z M 25.03125 -23.390625 "/></g></g></g></svg>